<svg width="1025.101" height="108.75" viewBox="0 0 1025.101 108.75" xmlns="http://www.w3.org/2000/svg">
	<g id="svgGroup" stroke-linecap="round" fill-rule="evenodd" font-size="9pt" stroke="#000" stroke-width="0.25mm" fill="none" style="stroke:#000;stroke-width:0.25mm;fill:none">
		<path d="M 55.351 54.15 L 93.451 54.15 L 93.451 59.4 L 86.701 59.55 L 86.701 106.2 L 81.901 106.2 L 70.951 98.7 Q 65.101 103.35 58.276 105.9 Q 51.451 108.45 44.401 108.45 A 48.638 48.638 0 0 1 31.445 106.786 A 40.654 40.654 0 0 1 21.151 102.375 Q 11.101 96.3 5.551 85.275 A 51.173 51.173 0 0 1 0.782 70.117 A 66.99 66.99 0 0 1 0.001 59.7 Q 0.001 45.9 5.026 33.6 A 67.087 67.087 0 0 1 9.954 23.785 Q 13.326 18.307 17.51 14.275 A 41.9 41.9 0 0 1 17.851 13.95 Q 25.501 9 34.276 6.375 A 61.283 61.283 0 0 1 48.655 3.828 A 56.144 56.144 0 0 1 51.601 3.75 A 46.337 46.337 0 0 1 67.646 6.492 A 43.522 43.522 0 0 1 72.526 8.625 Q 82.051 13.5 87.601 22.2 L 69.151 37.65 Q 60.901 23.7 50.401 7.95 A 31.871 31.871 0 0 0 38.928 16.563 A 45.494 45.494 0 0 0 33.451 24.6 A 54.647 54.647 0 0 0 27.178 45.484 A 67.569 67.569 0 0 0 26.851 52.2 Q 26.851 66.111 31.45 75.662 A 34.309 34.309 0 0 0 35.476 82.125 A 27.898 27.898 0 0 0 55.896 92.87 A 38.668 38.668 0 0 0 59.101 93 Q 61.501 93 62.701 92.85 L 62.701 59.55 L 55.351 59.4 L 55.351 54.15 Z" id="0" vector-effect="non-scaling-stroke"/>
		<path d="M 143.828 37.747 A 41.324 41.324 0 0 0 133.201 36.45 Q 126.301 36.45 119.926 39.3 Q 113.551 42.15 108.751 46.8 A 38.53 38.53 0 0 0 107.306 48.625 A 41.059 41.059 0 0 0 101.401 60 A 51.763 51.763 0 0 0 99.949 65.085 A 41.595 41.595 0 0 0 98.851 74.4 A 56.507 56.507 0 0 0 98.873 75.979 Q 99.298 91.182 108.001 99.6 A 30.269 30.269 0 0 0 121.524 107.153 A 41.324 41.324 0 0 0 132.151 108.45 Q 139.201 108.45 145.576 105.675 Q 151.951 102.9 156.751 98.25 A 37.728 37.728 0 0 0 157.915 96.797 A 39.844 39.844 0 0 0 164.026 85.05 A 53.06 53.06 0 0 0 165.222 80.867 A 44.116 44.116 0 0 0 166.501 70.5 A 56.507 56.507 0 0 0 166.479 68.921 Q 166.054 53.718 157.351 45.3 A 30.269 30.269 0 0 0 143.828 37.747 Z M 120.451 67.2 A 58.171 58.171 0 0 0 120.896 74.646 Q 122.023 83.356 126.005 88.411 A 18.34 18.34 0 0 0 126.076 88.5 A 21.499 21.499 0 0 0 136.02 95.394 A 31.737 31.737 0 0 0 142.651 96.9 Q 143.701 92.4 144.301 86.85 Q 144.704 83.121 144.836 80.272 A 55.737 55.737 0 0 0 144.901 77.7 A 59.113 59.113 0 0 0 144.456 70.187 Q 143.319 61.338 139.276 56.325 A 21.618 21.618 0 0 0 129.239 49.442 A 31.595 31.595 0 0 0 122.851 48 A 92.578 92.578 0 0 0 121.788 53.516 A 117.522 117.522 0 0 0 121.126 58.2 Q 120.466 63.627 120.451 67.046 A 35.957 35.957 0 0 0 120.451 67.2 Z" id="1" vector-effect="non-scaling-stroke"/>
		<path d="M 253.351 38.7 L 278.701 38.7 L 278.701 43.5 L 274.351 43.65 L 251.401 105.3 L 236.551 106.2 L 221.701 64.95 L 207.601 105.3 L 192.451 106.2 L 168.901 43.65 L 164.551 43.5 L 164.551 38.7 L 200.401 38.7 L 200.401 43.5 L 194.551 43.65 L 206.701 88.05 L 214.801 43.65 L 209.701 43.5 L 209.701 38.7 L 244.051 38.7 L 244.051 43.5 L 238.951 43.65 L 250.801 87.6 L 259.201 43.65 L 253.351 43.5 L 253.351 38.7 Z" id="2" vector-effect="non-scaling-stroke"/>
		<path d="M 325.351 89.85 L 327.901 94.35 L 309.601 107.55 Q 298.501 107.55 293.476 102.075 A 16.232 16.232 0 0 1 290.317 96.779 Q 288.568 92.162 288.458 85.366 A 56.933 56.933 0 0 1 288.451 84.45 L 288.451 44.55 L 278.401 44.55 L 278.401 39.75 A 62.717 62.717 0 0 0 283.917 36.318 Q 286.61 34.457 289.48 32.133 A 119.289 119.289 0 0 0 292.126 29.925 Q 299.551 23.55 305.701 16.5 L 310.651 18 L 309.901 38.7 L 327.451 38.7 L 327.451 45 L 309.601 44.7 L 309.601 79.2 A 29.594 29.594 0 0 0 309.821 82.942 Q 310.329 86.92 312.017 89.241 A 8.268 8.268 0 0 0 312.376 89.7 A 9.052 9.052 0 0 0 319.016 92.976 A 12.455 12.455 0 0 0 319.801 93 L 325.351 89.85 Z" id="3" vector-effect="non-scaling-stroke"/>
		<path d="M 397.351 101.4 L 402.751 101.85 L 402.751 106.2 L 370.651 106.2 L 370.651 101.85 L 376.201 101.4 L 376.201 69.75 A 19 19 0 0 0 375.786 65.654 Q 374.966 61.941 372.526 59.55 A 12.579 12.579 0 0 0 366.848 56.398 Q 364.82 55.856 362.401 55.8 L 357.451 60.75 L 357.151 101.4 L 362.701 101.85 L 362.701 106.2 L 330.451 106.2 L 330.451 101.85 L 336.001 101.4 L 335.251 11.55 L 329.551 12.75 L 328.051 8.4 L 355.801 0 L 357.901 3.6 L 357.451 53.55 L 369.601 36.15 A 47.705 47.705 0 0 1 377.307 36.729 Q 381.301 37.385 384.472 38.782 A 19.909 19.909 0 0 1 390.601 42.9 A 20.765 20.765 0 0 1 395.432 50.803 Q 396.571 54.027 397.034 57.986 A 49.709 49.709 0 0 1 397.351 63.75 L 397.351 101.4 Z" id="4" vector-effect="non-scaling-stroke"/>
		<path d="M 466.351 94.05 L 468.151 98.4 L 446.101 108.75 Q 442.051 105.9 440.551 100.95 A 68.07 68.07 0 0 1 431.727 105.52 A 61.018 61.018 0 0 1 429.676 106.35 A 39.019 39.019 0 0 1 425.925 107.588 Q 424.137 108.073 422.533 108.285 A 18.186 18.186 0 0 1 420.151 108.45 A 14.141 14.141 0 0 1 415.04 107.557 A 12.694 12.694 0 0 1 410.101 104.1 A 15.071 15.071 0 0 1 406.43 96.129 A 20.662 20.662 0 0 1 406.201 93 A 30.91 30.91 0 0 1 406.409 89.51 A 40.494 40.494 0 0 1 406.876 86.475 A 33.264 33.264 0 0 1 407.384 84.22 Q 407.665 83.162 407.991 82.277 A 14.05 14.05 0 0 1 408.601 80.85 L 440.401 75.75 L 440.701 71.4 A 25.946 25.946 0 0 0 440.727 70.248 Q 440.727 64.317 437.851 60.825 A 9.653 9.653 0 0 0 433.485 57.869 Q 431.861 57.299 429.856 57.103 A 22.689 22.689 0 0 0 427.651 57 A 32.658 32.658 0 0 0 423.178 57.319 A 38.645 38.645 0 0 0 421.051 57.675 A 36.622 36.622 0 0 0 418.421 58.285 Q 416.626 58.777 415.201 59.4 L 412.801 64.5 L 408.751 63 L 415.651 41.4 A 65.674 65.674 0 0 1 426.215 37.847 A 48.634 48.634 0 0 1 437.551 36.45 A 32.96 32.96 0 0 1 445.276 37.308 A 23.445 23.445 0 0 1 454.951 42.075 Q 461.701 47.7 461.701 59.7 L 461.551 62.7 L 460.051 82.95 L 459.751 88.35 A 26.48 26.48 0 0 0 459.795 89.928 Q 459.892 91.542 460.201 92.625 Q 460.651 94.2 461.701 95.85 L 466.351 94.05 Z M 439.651 95.85 L 439.501 92.7 L 439.651 89.4 L 440.101 80.85 L 428.551 83.55 A 11.311 11.311 0 0 0 428.209 85.05 Q 427.952 86.628 427.951 88.783 A 35.725 35.725 0 0 0 427.951 88.8 A 18.037 18.037 0 0 0 428.093 91.147 Q 428.451 93.863 429.706 95.42 A 5.584 5.584 0 0 0 429.751 95.475 A 6.526 6.526 0 0 0 431.239 96.821 A 5.18 5.18 0 0 0 434.101 97.65 A 7.886 7.886 0 0 0 436.09 97.375 Q 437.732 96.947 439.651 95.85 Z" id="5" vector-effect="non-scaling-stroke"/>
		<path d="M 577.501 101.4 L 582.901 101.85 L 582.901 106.2 L 550.801 106.2 L 550.801 101.85 L 556.351 101.4 L 556.351 69.75 A 20.757 20.757 0 0 0 555.97 65.646 Q 555.476 63.198 554.341 61.305 A 11.259 11.259 0 0 0 552.976 59.475 A 11.458 11.458 0 0 0 546.932 56.05 A 16.777 16.777 0 0 0 543.601 55.65 L 538.051 61.2 L 538.051 63.75 L 538.051 101.4 L 543.451 101.85 L 543.451 106.2 L 511.351 106.2 L 511.351 101.85 L 516.901 101.4 L 516.901 69.75 Q 516.901 64.813 515.012 61.555 A 10.941 10.941 0 0 0 513.526 59.55 Q 510.151 55.95 504.151 55.8 L 499.201 60.75 L 498.601 101.4 L 504.151 101.85 L 504.151 106.2 L 471.901 106.2 L 471.901 101.85 L 477.451 101.4 L 477.001 47.7 L 471.301 49.05 L 469.801 44.55 L 493.501 37.2 L 498.751 54 L 511.201 36.15 Q 522.751 36.15 529.126 40.8 A 19.11 19.11 0 0 1 535.308 48.605 Q 536.544 51.36 537.214 54.746 A 35.708 35.708 0 0 1 537.301 55.2 L 550.651 36 A 44.683 44.683 0 0 1 558.158 36.587 Q 562.138 37.267 565.27 38.734 A 19.126 19.126 0 0 1 570.976 42.75 A 20.559 20.559 0 0 1 575.436 50.092 Q 577.501 55.734 577.501 63.75 L 577.501 101.4 Z" id="6" vector-effect="non-scaling-stroke"/>
		<path d="M 647.251 70.05 L 647.251 100.8 L 663.601 100.95 L 663.601 106.2 L 615.001 106.2 L 615.001 100.95 L 622.351 100.8 L 622.351 11.1 L 615.001 10.95 L 615.001 5.7 L 643.951 6 L 666.301 4.95 A 48.176 48.176 0 0 1 675.089 5.711 Q 680.451 6.706 684.826 9 A 30.327 30.327 0 0 1 692.33 14.458 A 26.605 26.605 0 0 1 696.526 19.95 Q 700.501 26.85 700.501 35.1 A 29.72 29.72 0 0 1 697.518 48.54 Q 694.564 54.47 688.682 58.96 A 39.172 39.172 0 0 1 686.926 60.225 A 47.408 47.408 0 0 1 674.983 65.931 Q 669.095 67.861 661.906 68.896 A 122.988 122.988 0 0 1 647.251 70.05 Z M 647.251 10.95 L 647.251 64.2 Q 659.701 63.45 666.751 56.925 Q 673.801 50.4 673.801 39.45 A 31.708 31.708 0 0 0 672.244 29.41 A 28.985 28.985 0 0 0 670.351 24.975 Q 666.901 18.45 660.826 14.7 Q 654.751 10.95 647.251 10.95 Z" id="8" vector-effect="non-scaling-stroke"/>
		<path d="M 748.328 37.747 A 41.324 41.324 0 0 0 737.701 36.45 Q 730.801 36.45 724.426 39.3 Q 718.051 42.15 713.251 46.8 A 38.53 38.53 0 0 0 711.806 48.625 A 41.059 41.059 0 0 0 705.901 60 A 51.763 51.763 0 0 0 704.449 65.085 A 41.595 41.595 0 0 0 703.351 74.4 A 56.507 56.507 0 0 0 703.373 75.979 Q 703.798 91.182 712.501 99.6 A 30.269 30.269 0 0 0 726.024 107.153 A 41.324 41.324 0 0 0 736.651 108.45 Q 743.701 108.45 750.076 105.675 Q 756.451 102.9 761.251 98.25 A 37.728 37.728 0 0 0 762.415 96.797 A 39.844 39.844 0 0 0 768.526 85.05 A 53.06 53.06 0 0 0 769.722 80.867 A 44.116 44.116 0 0 0 771.001 70.5 A 56.507 56.507 0 0 0 770.979 68.921 Q 770.554 53.718 761.851 45.3 A 30.269 30.269 0 0 0 748.328 37.747 Z M 724.951 67.2 A 58.171 58.171 0 0 0 725.396 74.646 Q 726.523 83.356 730.505 88.411 A 18.34 18.34 0 0 0 730.576 88.5 A 21.499 21.499 0 0 0 740.52 95.394 A 31.737 31.737 0 0 0 747.151 96.9 Q 748.201 92.4 748.801 86.85 Q 749.204 83.121 749.336 80.272 A 55.737 55.737 0 0 0 749.401 77.7 A 59.113 59.113 0 0 0 748.956 70.187 Q 747.819 61.338 743.776 56.325 A 21.618 21.618 0 0 0 733.739 49.442 A 31.595 31.595 0 0 0 727.351 48 A 92.578 92.578 0 0 0 726.288 53.516 A 117.522 117.522 0 0 0 725.626 58.2 Q 724.966 63.627 724.951 67.046 A 35.957 35.957 0 0 0 724.951 67.2 Z" id="9" vector-effect="non-scaling-stroke"/>
		<path d="M 775.351 106.2 L 775.351 101.85 L 780.901 101.4 L 780.151 11.55 L 774.451 12.75 L 772.951 8.4 L 800.701 0 L 802.801 3.6 L 802.051 101.4 L 807.601 101.85 L 807.601 106.2 L 775.351 106.2 Z" id="10" vector-effect="non-scaling-stroke"/>
		<path d="M 812.401 106.2 L 812.401 101.85 L 817.951 101.4 L 817.201 11.55 L 811.501 12.75 L 810.001 8.4 L 837.751 0 L 839.851 3.6 L 839.101 101.4 L 844.651 101.85 L 844.651 106.2 L 812.401 106.2 Z" id="11" vector-effect="non-scaling-stroke"/>
		<path d="M 908.551 94.05 L 910.351 98.4 L 888.301 108.75 Q 884.251 105.9 882.751 100.95 A 68.07 68.07 0 0 1 873.927 105.52 A 61.018 61.018 0 0 1 871.876 106.35 A 39.019 39.019 0 0 1 868.125 107.588 Q 866.337 108.073 864.733 108.285 A 18.186 18.186 0 0 1 862.351 108.45 A 14.141 14.141 0 0 1 857.24 107.557 A 12.694 12.694 0 0 1 852.301 104.1 A 15.071 15.071 0 0 1 848.63 96.129 A 20.662 20.662 0 0 1 848.401 93 A 30.91 30.91 0 0 1 848.609 89.51 A 40.494 40.494 0 0 1 849.076 86.475 A 33.264 33.264 0 0 1 849.584 84.22 Q 849.865 83.162 850.191 82.277 A 14.05 14.05 0 0 1 850.801 80.85 L 882.601 75.75 L 882.901 71.4 A 25.946 25.946 0 0 0 882.927 70.248 Q 882.927 64.317 880.051 60.825 A 9.653 9.653 0 0 0 875.685 57.869 Q 874.061 57.299 872.056 57.103 A 22.689 22.689 0 0 0 869.851 57 A 32.658 32.658 0 0 0 865.378 57.319 A 38.645 38.645 0 0 0 863.251 57.675 A 36.622 36.622 0 0 0 860.621 58.285 Q 858.826 58.777 857.401 59.4 L 855.001 64.5 L 850.951 63 L 857.851 41.4 A 65.674 65.674 0 0 1 868.415 37.847 A 48.634 48.634 0 0 1 879.751 36.45 A 32.96 32.96 0 0 1 887.476 37.308 A 23.445 23.445 0 0 1 897.151 42.075 Q 903.901 47.7 903.901 59.7 L 903.751 62.7 L 902.251 82.95 L 901.951 88.35 A 26.48 26.48 0 0 0 901.995 89.928 Q 902.092 91.542 902.401 92.625 Q 902.851 94.2 903.901 95.85 L 908.551 94.05 Z M 881.851 95.85 L 881.701 92.7 L 881.851 89.4 L 882.301 80.85 L 870.751 83.55 A 11.311 11.311 0 0 0 870.409 85.05 Q 870.152 86.628 870.151 88.783 A 35.725 35.725 0 0 0 870.151 88.8 A 18.037 18.037 0 0 0 870.293 91.147 Q 870.651 93.863 871.906 95.42 A 5.584 5.584 0 0 0 871.951 95.475 A 6.526 6.526 0 0 0 873.439 96.821 A 5.18 5.18 0 0 0 876.301 97.65 A 7.886 7.886 0 0 0 878.29 97.375 Q 879.932 96.947 881.851 95.85 Z" id="12" vector-effect="non-scaling-stroke"/>
		<path d="M 1019.701 101.4 L 1025.101 101.85 L 1025.101 106.2 L 993.001 106.2 L 993.001 101.85 L 998.551 101.4 L 998.551 69.75 A 20.757 20.757 0 0 0 998.17 65.646 Q 997.676 63.198 996.541 61.305 A 11.259 11.259 0 0 0 995.176 59.475 A 11.458 11.458 0 0 0 989.132 56.05 A 16.777 16.777 0 0 0 985.801 55.65 L 980.251 61.2 L 980.251 63.75 L 980.251 101.4 L 985.651 101.85 L 985.651 106.2 L 953.551 106.2 L 953.551 101.85 L 959.101 101.4 L 959.101 69.75 Q 959.101 64.813 957.212 61.555 A 10.941 10.941 0 0 0 955.726 59.55 Q 952.351 55.95 946.351 55.8 L 941.401 60.75 L 940.801 101.4 L 946.351 101.85 L 946.351 106.2 L 914.101 106.2 L 914.101 101.85 L 919.651 101.4 L 919.201 47.7 L 913.501 49.05 L 912.001 44.55 L 935.701 37.2 L 940.951 54 L 953.401 36.15 Q 964.951 36.15 971.326 40.8 A 19.11 19.11 0 0 1 977.508 48.605 Q 978.744 51.36 979.414 54.746 A 35.708 35.708 0 0 1 979.501 55.2 L 992.851 36 A 44.683 44.683 0 0 1 1000.358 36.587 Q 1004.338 37.267 1007.47 38.734 A 19.126 19.126 0 0 1 1013.176 42.75 A 20.559 20.559 0 0 1 1017.636 50.092 Q 1019.701 55.734 1019.701 63.75 L 1019.701 101.4 Z" id="13" vector-effect="non-scaling-stroke"/>
	</g>
</svg>